HIERARCHY
ROOT Hips
{
	OFFSET 0.000000 0.000000 0.000000 
	CHANNELS 6 Xposition Yposition Zposition Zrotation Yrotation Xrotation
	JOINT LeftUpLeg
	{
		OFFSET 1.363060 -1.794630 0.839290 
		CHANNELS 3 Zrotation Yrotation Xrotation
		JOINT LeftLeg
		{
			OFFSET 2.448110 -6.726130 0.000000 
			CHANNELS 3 Zrotation Yrotation Xrotation
			JOINT LeftFoot
			{
				OFFSET 2.562200 -7.039590 0.000000 
				CHANNELS 3 Zrotation Yrotation Xrotation
				JOINT LeftToeBase
				{
					OFFSET 0.157640 -0.433110 2.322550 
					CHANNELS 3 Zrotation Yrotation Xrotation
					End Site
					{
						OFFSET 0.000000 0.000000 0.000000 
					}
				}
			}
		}
	}
	JOINT RightUpLeg
	{
		OFFSET -1.305520 -1.794630 0.839290 
		CHANNELS 3 Zrotation Yrotation Xrotation
		JOINT RightLeg
		{
			OFFSET -2.542530 -6.985550 0.000000 
			CHANNELS 3 Zrotation Yrotation Xrotation
			JOINT RightFoot
			{
				OFFSET -2.568260 -7.056230 0.000000 
				CHANNELS 3 Zrotation Yrotation Xrotation
				JOINT RightToeBase
				{
					OFFSET -0.164730 -0.452590 2.363150 
					CHANNELS 3 Zrotation Yrotation Xrotation
					End Site
					{
						OFFSET 0.000000 0.000000 0.000000 
					}
				}
			}
		}
	}
	JOINT Spine
	{
		OFFSET 0.028270 2.035590 -0.193380 
		CHANNELS 3 Zrotation Yrotation Xrotation
		JOINT Spine1
		{
			OFFSET 0.056720 2.048850 -0.042750 
			CHANNELS 3 Zrotation Yrotation Xrotation
			JOINT Neck1
			{
				OFFSET -0.054170 1.746240 0.172020 
				CHANNELS 3 Zrotation Yrotation Xrotation
				JOINT Head
				{
					OFFSET 0.104070 1.761360 -0.123970 
					CHANNELS 3 Zrotation Yrotation Xrotation
					End Site
					{
						OFFSET 0.000000 0.000000 0.000000 
					}
				}
			}
			JOINT LeftArm
			{
				OFFSET 3.362410 1.200890 -0.311210 
				CHANNELS 3 Zrotation Yrotation Xrotation
				JOINT LeftForeArm
				{
					OFFSET 4.983000 -0.000000 -0.000000 
					CHANNELS 3 Zrotation Yrotation Xrotation
					JOINT LeftHand
					{
						OFFSET 3.483560 -0.000000 -0.000000 
						CHANNELS 3 Zrotation Yrotation Xrotation
						JOINT LeftHandIndex1
						{
							OFFSET 0.715260 -0.000000 -0.000000 
							CHANNELS 3 Zrotation Yrotation Xrotation
							End Site
							{
								OFFSET 0.000000 0.000000 0.000000 
							}
						}
					}
				}
			}
			JOINT RightArm
			{
				OFFSET -3.136600 1.374050 -0.404650 
				CHANNELS 3 Zrotation Yrotation Xrotation
				JOINT RightForeArm
				{
					OFFSET -5.241900 -0.000000 -0.000000 
					CHANNELS 3 Zrotation Yrotation Xrotation
					JOINT RightHand
					{
						OFFSET -3.444170 -0.000000 -0.000000 
						CHANNELS 3 Zrotation Yrotation Xrotation
						JOINT RightHandIndex1
						{
							OFFSET -0.622530 -0.000000 -0.000000 
							CHANNELS 3 Zrotation Yrotation Xrotation
							End Site
							{
								OFFSET 0.000000 0.000000 0.000000 
							}
						}
					}
				}
			}
		}
	}
}
MOTION
Frames: 12
Frame Time: 0.041667
-0.274029 17.460362 -2.373720 -0.116689 35.427336 3.596132 5.285395 -24.357028 -20.895592 -0.290470 5.057066 16.740480 1.453393 -2.259914 16.462602 0.692100 -5.318300 -14.818800 14.928539 8.928539 7.594896 -0.192626 -3.390954 15.704490 3.645309 -20.385186 -28.488897 -0.051400 -1.462400 4.022200 -12.514756 20.245937 8.833959 -5.572149 10.399995 -6.894765 8.385626 -2.381775 13.539216 3.480200 -0.801200 5.424100 -49.700714 21.960770 -20.966270 73.896111 -58.600206 -50.064057 -0.189360 -1.038216 2.662619 -7.125000 0.000000 0.000000 54.581257 33.677419 74.007555 -65.415111 53.597256 -48.510898 0.978191 1.740557 18.498146 7.125000 0.000000 0.000000 
-0.266843 17.467354 -2.380614 -0.120308 34.715900 3.572447 5.252834 -24.130878 -20.679902 -0.295610 5.054305 16.666026 1.349441 -1.808856 16.178635 0.743600 -5.508300 -15.364300 14.736512 9.259912 7.500237 -0.193999 -3.407385 15.684874 3.729123 -20.363223 -28.034722 -0.044200 -1.356700 3.730800 -12.343283 20.024186 8.833093 -5.556493 10.284702 -6.911058 8.137962 -2.433954 14.351006 3.412600 -0.827500 5.647800 -49.513843 21.928353 -21.161607 73.649083 -58.558224 -49.853343 -0.194112 -1.037839 2.630186 -7.125000 0.000000 0.000000 54.389634 33.236778 73.543341 -64.863096 53.437768 -47.899865 0.966574 1.715400 18.402281 7.125000 0.000000 0.000000 
-0.258784 17.474831 -2.387314 -0.017093 33.965270 3.556867 5.126145 -23.953761 -20.419214 -0.292423 5.057168 16.641180 1.217213 -1.297013 15.834163 0.733100 -5.470100 -15.254300 14.405962 9.572314 7.412645 -0.195406 -3.418704 15.640338 3.833413 -20.340974 -27.470007 -0.037700 -1.253400 3.446400 -11.769389 19.669151 9.222636 -5.442236 10.117875 -6.858459 8.415757 -2.275889 14.534616 3.586000 -0.750600 5.717600 -49.910563 21.963036 -21.721580 73.710623 -58.576201 -49.899823 -0.192196 -1.039621 2.423686 -7.125000 0.000000 0.000000 53.850136 33.118690 73.213462 -64.407525 53.299056 -47.382408 0.946439 1.693588 18.237128 7.125000 0.000000 0.000000 
-0.251306 17.481822 -2.393626 0.058408 33.229125 3.543431 5.019631 -23.737968 -20.203509 -0.285626 5.076852 16.660895 1.108809 -0.898649 15.471102 0.752500 -5.540600 -15.457100 14.158083 10.030025 7.400264 -0.190322 -3.424739 15.587617 3.895134 -20.312127 -27.108455 -0.033400 -1.180100 3.244600 -11.345363 19.237337 9.493731 -5.402358 9.911337 -6.783608 9.048713 -2.031873 14.140070 3.865500 -0.623300 5.608700 -50.113487 21.994643 -22.310363 73.554870 -58.545245 -49.763279 -0.189592 -1.042459 2.202237 -7.125000 0.000000 0.000000 53.397903 33.113837 72.924356 -63.962616 53.154872 -46.889841 0.932371 1.667428 18.161377 7.125000 0.000000 0.000000 
-0.241596 17.486289 -2.401006 -0.067338 32.535405 3.432223 5.081060 -23.484752 -19.978787 -0.286779 5.097652 16.626509 1.022546 -0.516131 15.235937 0.733600 -5.472000 -15.259700 14.121703 10.410433 7.422141 -0.189895 -3.435887 15.569524 3.955798 -20.289982 -26.740212 -0.028800 -1.094700 3.009400 -11.473665 18.975871 9.253229 -5.593055 9.761891 -6.784087 9.326625 -2.052143 14.095138 3.927600 -0.618800 5.576600 -49.597730 21.857875 -22.423555 73.291273 -58.485030 -49.557229 -0.191697 -1.045774 2.069691 -7.125000 0.000000 0.000000 53.273113 32.659004 72.269860 -63.495198 53.025531 -46.398120 0.903448 1.654246 18.055785 7.125000 0.000000 0.000000 
-0.232468 17.491727 -2.410328 -0.162668 31.793245 3.393550 5.143509 -23.243447 -19.731887 -0.291767 5.115121 16.556829 0.910674 -0.020811 14.989486 0.688100 -5.303200 -14.775300 14.047206 10.784812 7.376772 -0.189138 -3.453016 15.542571 4.052813 -20.318197 -26.257727 -0.021700 -0.950700 2.613200 -12.071699 18.875896 8.614936 -5.923343 9.673223 -6.930923 9.453971 -2.299219 14.335196 3.871800 -0.715300 5.616400 -48.593862 21.569046 -22.052787 72.980980 -58.412962 -49.325264 -0.193863 -1.052690 1.995137 -7.125000 0.000000 0.000000 53.323278 31.861595 71.308236 -62.983174 52.896336 -45.847407 0.859476 1.662399 17.985150 7.125000 0.000000 0.000000 
-0.226933 17.501534 -2.414407 0.286757 31.038312 3.757132 4.805506 -23.061156 -19.524753 -0.301384 5.099736 16.494507 0.761733 0.500250 14.637496 0.661400 -5.201400 -14.483800 13.486880 11.281745 7.179977 -0.181712 -3.493906 15.496009 4.152604 -20.390304 -25.863372 -0.013300 -0.744600 2.046300 -12.910091 18.521757 8.105552 -5.731209 9.498362 -7.054670 9.163612 -2.240692 14.436390 3.695800 -0.676400 5.584700 -47.743422 21.518653 -22.128507 72.472370 -58.307469 -48.883943 -0.197368 -1.052725 1.944943 -7.125000 0.000000 0.000000 53.615124 31.442756 70.793448 -62.412734 52.714199 -45.217886 0.845442 1.651270 18.227559 7.125000 0.000000 0.000000 
-0.215766 17.514741 -2.413047 0.743326 30.076249 4.137647 4.417260 -22.669672 -19.308993 -0.323147 5.064376 16.370954 0.615462 1.006039 14.266573 0.689300 -5.307800 -14.788600 12.841001 11.856935 6.868278 -0.185422 -3.565088 15.531764 4.232515 -20.401686 -25.458196 -0.006100 -0.505800 1.389800 -13.202783 18.469523 8.231520 -5.431435 9.496576 -6.821857 8.972425 -2.347030 14.337273 3.608900 -0.736200 5.565400 -47.246969 20.955898 -21.818912 72.501842 -58.281324 -48.888055 -0.181588 -1.061841 1.294441 -7.125000 0.000000 0.000000 53.276055 30.970153 69.616406 -61.946049 52.560040 -44.628031 0.835373 1.614567 18.515776 7.125000 0.000000 0.000000 
-0.207027 17.525422 -2.416349 0.795761 29.019976 4.098901 4.305075 -22.183340 -18.951212 -0.348795 5.033682 16.184799 0.468289 1.587832 13.976052 0.704100 -5.363100 -14.947200 12.553445 12.391447 6.713138 -0.200386 -3.629883 15.612678 4.336968 -20.427676 -24.906442 -0.001200 -0.226300 0.621900 -12.963663 18.373836 8.415374 -5.393003 9.449827 -6.729068 8.928386 -2.414604 14.325609 3.614100 -0.780800 5.569400 -46.961721 20.608437 -21.737036 72.480568 -58.259209 -48.871644 -0.178343 -1.065856 0.923354 -7.125000 0.000000 0.000000 52.726977 30.643233 68.601130 -61.462613 52.409886 -44.040397 0.818439 1.587247 18.547261 7.125000 0.000000 0.000000 
-0.210425 17.529598 -2.424214 0.856090 28.317899 3.865044 4.158504 -22.003188 -18.540014 -0.362424 5.002800 16.066475 0.326557 2.084838 13.694704 0.723200 -5.434200 -15.151200 12.317322 12.698820 6.745603 -0.211424 -3.664762 15.644494 4.436463 -20.497705 -24.464156 -0.000200 -0.082000 0.225200 -12.174065 17.800460 8.700817 -5.310728 9.154682 -6.988368 9.071091 -2.187447 14.662206 3.772300 -0.680600 5.645000 -47.233451 20.801912 -22.230086 72.461748 -58.277284 -48.866516 -0.184877 -1.065226 0.844051 -7.125000 0.000000 0.000000 51.993230 30.728777 68.204836 -61.008245 52.280967 -43.527086 0.802638 1.567557 18.420073 7.125000 0.000000 0.000000 
-0.202269 17.536977 -2.421884 1.008526 27.420985 4.049049 3.999493 -21.604751 -18.362363 -0.372627 5.011046 16.008387 0.202188 2.526935 13.342009 0.778300 -5.632500 -15.721800 11.918275 12.894794 6.408801 -0.217015 -3.702984 15.631245 4.479260 -20.286564 -23.731271 -0.000200 0.089600 -0.246100 -12.727584 17.749395 8.214441 -5.361522 9.122043 -7.018825 9.136822 -2.458836 14.809913 3.713500 -0.796600 5.672900 -46.155195 20.354269 -21.678433 72.048356 -58.171412 -48.539422 -0.190272 -1.066658 0.808571 -7.125000 0.000000 0.000000 51.735094 29.978430 66.873548 -60.714295 52.214457 -43.144232 0.788114 1.555159 18.399402 7.125000 0.000000 0.000000 
-0.193141 17.543386 -2.429264 0.965490 26.598805 4.099005 4.018290 -21.295557 -18.209830 -0.373804 5.029852 15.961588 0.074201 2.996487 13.028850 0.830300 -5.813400 -16.244000 11.736564 13.148060 6.170421 -0.218637 -3.718898 15.606408 4.477756 -20.023916 -23.140936 -0.000400 0.136900 -0.376300 -13.202604 17.675736 7.956435 -5.526582 9.072668 -6.949963 9.290677 -2.756333 14.808269 3.669500 -0.917900 5.694800 -45.126937 19.689171 -21.257838 71.612281 -58.048006 -48.195595 -0.202131 -1.062584 0.724323 -7.125000 0.000000 0.000000 51.407532 29.377487 65.392230 -60.505990 52.168648 -42.842012 0.770092 1.546417 18.292486 7.125000 0.000000 0.000000 
